<?xml version="1.0" encoding="UTF-8"?>
<svg width="388px" height="96px" viewBox="0 0 388 96" version="1.1" xmlns="http://www.w3.org/2000/svg" xmlns:xlink="http://www.w3.org/1999/xlink">
    <!-- Generator: Sketch 41.2 (35397) - http://www.bohemiancoding.com/sketch -->
    <title>logo/algolia/master</title>
    <desc>Created with Sketch.</desc>
    <defs>
        <linearGradient x1="-37.7495446%" y1="134.935721%" x2="130.238907%" y2="-27.7001301%" id="linearGradient-1">
            <stop stop-color="#00AEFF" offset="0%"></stop>
            <stop stop-color="#3369E7" offset="100%"></stop>
        </linearGradient>
    </defs>
    <g id="Symbols" stroke="none" stroke-width="1" fill="none" fill-rule="evenodd">
        <g id="logo/algolia/master">
            <path d="M12.6144421,0 L83.1855609,0 C90.1322237,0 95.8000031,5.63701674 95.8000031,12.6106457 L95.8000031,83.1895822 C95.8000031,90.1341543 90.1612893,95.8002279 83.1855609,95.8002279 L12.6144421,95.8002279 C5.66777931,95.8002279 3.26849658e-13,90.1632111 3.26849658e-13,83.1895822 L3.26849658e-13,12.5815889 C3.26849658e-13,5.63701674 5.63871377,0 12.6144421,0 Z" id="Shape" fill="url(#linearGradient-1)"></path>
            <path d="M49.2016205,24.320531 C34.2373406,24.320531 22.0970591,36.4372113 22.0970591,51.4014568 C22.0970591,66.3657023 34.2373406,78.4533258 49.2016205,78.4533258 C64.1659003,78.4533258 76.3061818,66.3366455 76.3061818,51.3724 C76.3061818,36.4081545 64.1950137,24.320531 49.2016205,24.320531 Z M49.2016205,70.4627093 C38.6625751,70.4627093 30.10324,61.9200138 30.10324,51.4014568 C30.10324,40.8828998 38.6625751,32.3402043 49.2016205,32.3402043 C59.7406658,32.3402043 68.3000009,40.8828998 68.3000009,51.4014568 C68.3000009,61.9200138 59.7697792,70.4627093 49.2016205,70.4627093 Z M49.2016205,36.2338138 L49.2016205,50.4425828 C49.2016205,50.8493778 49.6383212,51.1399457 50.0167952,50.9365482 L62.6520043,44.3987711 C62.9431381,44.2534871 63.0304783,43.9048057 62.8849113,43.6142378 C60.2647067,39.0232654 55.4027714,35.8851324 49.7838882,35.6817349 C49.4927543,35.6817349 49.2016205,35.9141892 49.2016205,36.2338138 Z M31.5006824,25.8024272 L29.8412195,24.1461903 C28.21087,22.5190102 25.5906653,22.5190102 23.9603158,24.1461903 L21.9806056,26.1220518 C20.350256,27.7492319 20.350256,30.3643428 21.9806056,31.9915229 L23.6109551,33.618703 C23.8729756,33.880214 24.2514496,33.8221005 24.4843567,33.5605894 C25.4450984,32.2530339 26.4931802,31.0035921 27.6577156,29.8413206 C28.8513644,28.6499923 30.0741266,27.603948 31.4133423,26.645074 C31.7044761,26.4707333 31.7335895,26.0639382 31.5006824,25.8024272 Z M58.0812028,21.5020226 L58.0812028,18.2186057 C58.0812028,15.9231195 56.2179462,14.0634851 53.9179888,14.0634851 L44.2232316,14.0634851 C41.9232742,14.0634851 40.0600176,15.9231195 40.0600176,18.2186057 L40.0600176,21.589193 C40.0600176,21.9669312 40.4093782,22.2284423 40.7878522,22.141272 C43.495397,21.3567387 46.3485087,20.9499437 49.2307338,20.9499437 C51.9965054,20.9499437 54.7331636,21.3276819 57.3824816,22.0541016 C57.7318422,22.141272 58.0812028,21.8797609 58.0812028,21.5020226 Z" id="Shape" fill="#FFFFFF"></path>
            <path d="M240.039858,73.3974448 C240.039858,81.155607 238.060148,86.8216806 234.071614,90.4247222 C230.083081,94.0277638 223.998383,95.8292847 215.788409,95.8292847 C212.78973,95.8292847 206.559466,95.2481489 201.581077,94.143991 L203.41522,85.1363869 C207.578434,86.0080905 213.080864,86.2405448 215.963089,86.2405448 C220.53389,86.2405448 223.79459,85.3107276 225.745186,83.4510932 C227.695783,81.5914589 228.656525,78.8310641 228.656525,75.1699089 L228.656525,73.3102745 C227.521103,73.8623534 226.03632,74.4144324 224.202177,74.9955681 C222.368034,75.5476471 220.242757,75.838215 217.855459,75.838215 C214.711214,75.838215 211.858102,75.3442496 209.267011,74.3563188 C206.675919,73.368388 204.434189,71.9155487 202.600045,69.9978007 C200.765902,68.0800527 199.310233,65.6683394 198.291264,62.7917174 C197.272296,59.9150955 196.748255,54.7720441 196.748255,50.9946618 C196.748255,47.4497337 197.301409,43.0040453 198.378605,40.040253 C199.484913,37.0764606 201.057036,34.5194634 203.182313,32.3983179 C205.278477,30.2771724 207.840455,28.6499923 210.839133,27.458664 C213.837812,26.2673358 217.360532,25.5118593 221.174385,25.5118593 C224.871785,25.5118593 228.278051,25.9767679 231.596977,26.5288468 C234.915903,27.0809258 237.739901,27.6620615 240.039858,28.3013109 L240.039858,73.3974448 L240.039858,73.3974448 Z M208.393609,50.965605 C208.393609,55.7309181 209.441691,61.0192534 211.537855,63.2275693 C213.634018,65.4358851 216.341563,66.540043 219.660489,66.540043 C221.465519,66.540043 223.183209,66.2785319 224.784445,65.7845665 C226.385681,65.2906012 227.66667,64.7094654 228.685638,64.0121025 L228.685638,35.797962 C227.870463,35.6236213 224.464197,34.9262584 221.174385,34.839088 C217.040284,34.7228609 213.896039,36.4081545 211.683421,39.1104358 C209.499918,41.812717 208.393609,46.5489733 208.393609,50.965605 Z M294.074301,50.965605 C294.074301,54.8011009 293.521146,57.7067797 292.385724,60.8739695 C291.250302,64.0411593 289.649066,66.7434405 287.582016,68.9808131 C285.514966,71.2181858 283.040328,72.961593 280.128989,74.1819781 C277.217651,75.4023632 272.73419,76.099726 270.492459,76.099726 C268.250728,76.0706693 263.79638,75.4314199 260.914155,74.1819781 C258.03193,72.9325362 255.557293,71.2181858 253.490242,68.9808131 C251.423192,66.7434405 249.821956,64.0411593 248.65742,60.8739695 C247.492885,57.7067797 246.910617,54.8011009 246.910617,50.965605 C246.910617,47.1301091 247.434658,43.4398971 248.599194,40.301764 C249.763729,37.163631 251.394078,34.4904066 253.490242,32.2530339 C255.586406,30.0156613 258.090157,28.3013109 260.943269,27.0809258 C263.825494,25.8605407 266.998853,25.279405 270.434232,25.279405 C273.869612,25.279405 277.042971,25.8895975 279.954309,27.0809258 C282.865648,28.3013109 285.369399,30.0156613 287.407336,32.2530339 C289.474386,34.4904066 291.075622,37.163631 292.240157,40.301764 C293.46292,43.4398971 294.074301,47.1301091 294.074301,50.965605 Z M282.428947,50.9946618 C282.428947,46.0840647 281.351752,41.9870577 279.255588,39.1394925 C277.159424,36.2628706 274.218972,34.839088 270.463346,34.839088 C266.707719,34.839088 263.767267,36.2628706 261.671103,39.1394925 C259.57494,42.0161145 258.555971,46.0840647 258.555971,50.9946618 C258.555971,55.9633724 259.604053,59.304903 261.700217,62.1815249 C263.79638,65.0872036 266.736832,66.5109862 270.492459,66.5109862 C274.248086,66.5109862 277.188537,65.0581469 279.284701,62.1815249 C281.380865,59.2758462 282.428947,55.9633724 282.428947,50.9946618 Z M319.432059,76.099726 C300.770379,76.1868964 300.770379,61.0483102 300.770379,58.6365969 L300.741266,4.93965385 L312.124599,3.13813303 L312.124599,56.4863946 C312.124599,57.8520636 312.124599,66.5109862 319.432059,66.540043 L319.432059,76.099726 Z M339.491181,76.099726 L328.049621,76.099726 L328.049621,27.051869 L339.491181,25.2503482 L339.491181,76.099726 Z M333.755844,19.8748425 C337.569698,19.8748425 340.68483,16.7948231 340.68483,12.9883839 C340.68483,9.1819448 337.598811,6.10192534 333.755844,6.10192534 C329.912878,6.10192534 326.826859,9.1819448 326.826859,12.9883839 C326.826859,16.7948231 329.941991,19.8748425 333.755844,19.8748425 Z M367.934958,25.279405 C371.690585,25.279405 374.863944,25.7443136 377.425922,26.6741308 C379.9879,27.603948 382.05495,28.9115034 383.568846,30.5677403 C385.082742,32.2239772 386.159937,34.4904066 386.800432,36.8730631 C387.470039,39.2557197 387.790287,41.8708306 387.790287,44.7474525 L387.790287,73.9785806 C386.043484,74.3563188 383.394166,74.7921706 379.842333,75.3151928 C376.2905,75.838215 372.301966,76.099726 367.876731,76.099726 C364.93628,76.099726 362.228735,75.8091582 359.812324,75.2570792 C357.366799,74.7050003 355.299749,73.8042398 353.552946,72.554798 C351.835256,71.3053561 350.496041,69.7072328 349.506186,67.7313713 C348.545444,65.7555098 348.050516,62.9660582 348.050516,60.0603794 C348.050516,57.2709279 348.603671,55.4984638 349.680866,53.5807159 C350.787174,51.6629679 352.271957,50.0939014 354.135214,48.8735163 C356.027584,47.6531312 358.181974,46.7814276 360.656612,46.2584054 C363.13125,45.7353833 365.722341,45.4738722 368.400772,45.4738722 C369.652648,45.4738722 370.96275,45.5610426 372.360193,45.7063265 C373.757635,45.8516104 375.213304,46.1131215 376.785427,46.4908597 L376.785427,44.6312254 C376.785427,43.3236699 376.63986,42.0742281 376.319613,40.9119566 C375.999366,39.7206283 375.446211,38.7036407 374.689263,37.8028803 C373.903202,36.9021199 372.884234,36.204757 371.603245,35.7107916 C370.322256,35.2168263 368.691906,34.839088 366.741309,34.839088 C364.121105,34.839088 361.733807,35.1587127 359.550303,35.5364509 C357.366799,35.9141892 355.56177,36.350041 354.19344,36.8440063 L352.825111,27.5167776 C354.251667,27.0228122 356.376944,26.5288468 359.113603,26.0348815 C361.850261,25.5409161 364.790713,25.279405 367.934958,25.279405 Z M368.8957,66.5109862 C372.389306,66.5109862 374.980397,66.3075887 376.785427,65.9589073 L376.785427,54.3943059 C376.144933,54.2199652 375.242418,54.0165677 374.048769,53.8422269 C372.85512,53.6678862 371.545018,53.5516591 370.089349,53.5516591 C368.837473,53.5516591 367.556484,53.6388294 366.275495,53.8422269 C364.994506,54.0165677 363.829971,54.3652491 362.811002,54.8592145 C361.792034,55.3531799 360.947746,56.0505428 360.336365,56.9513032 C359.69587,57.8520636 359.404736,58.3750858 359.404736,59.7407548 C359.404736,62.4139792 360.336365,63.9539889 362.024941,64.9709765 C363.742631,66.0170208 366.013475,66.5109862 368.8957,66.5109862 Z M144.082142,25.5699729 C147.837768,25.5699729 151.011127,26.0348815 153.573105,26.9646987 C156.135083,27.8945158 158.202133,29.2020713 159.716029,30.8583082 C161.259039,32.5436018 162.307121,34.7809744 162.947615,37.163631 C163.617223,39.5462876 163.93747,42.1613984 163.93747,45.0380204 L163.93747,74.2691484 C162.190667,74.6468867 159.541349,75.0827385 155.989516,75.6057607 C152.437683,76.1287828 148.44915,76.3902939 144.023915,76.3902939 C141.083463,76.3902939 138.375918,76.099726 135.959507,75.5476471 C133.513983,74.9955681 131.446933,74.0948077 129.70013,72.8453659 C127.98244,71.595924 126.643224,69.9978007 125.653369,68.0219392 C124.692627,66.0460776 124.1977,63.256626 124.1977,60.3509473 C124.1977,57.5614957 124.750854,55.7890317 125.828049,53.8712837 C126.934358,51.9535358 128.419141,50.3844693 130.282397,49.1640842 C132.174767,47.9436991 134.329158,47.0719955 136.803796,46.5489733 C139.278433,46.0259511 141.869525,45.7644401 144.547956,45.7644401 C145.799831,45.7644401 147.109934,45.8516104 148.507376,45.9968944 C149.875705,46.1421783 151.360488,46.4036894 152.932611,46.7814276 L152.932611,44.9217932 C152.932611,43.6142378 152.787044,42.3647959 152.466797,41.2025245 C152.146549,40.0111962 151.593395,38.9942086 150.836447,38.0934482 C150.050386,37.1926878 149.031417,36.4953249 147.750428,36.0013595 C146.469439,35.5073941 144.83909,35.1296559 142.888493,35.1296559 C140.268288,35.1296559 137.880991,35.4492806 135.697487,35.8270188 C133.513983,36.204757 131.708953,36.6406088 130.340624,37.1345742 L128.972295,27.8073455 C130.398851,27.3133801 132.524128,26.8194147 135.260786,26.3254493 C137.997444,25.8024272 140.937896,25.5699729 144.082142,25.5699729 Z M145.071997,66.8306109 C148.565603,66.8306109 151.156694,66.6272134 152.961724,66.2785319 L152.961724,54.7139306 C152.32123,54.5395898 151.418715,54.3361923 150.225066,54.1618516 C149.031417,53.9875109 147.721315,53.8712837 146.265646,53.8712837 C145.01377,53.8712837 143.732781,53.9584541 142.451792,54.1618516 C141.170803,54.3361923 140.006268,54.6848738 138.987299,55.1788392 C137.968331,55.6728045 137.124043,56.3701674 136.512662,57.2709279 C135.872167,58.1716883 135.581033,58.6947104 135.581033,60.0603794 C135.581033,62.7336039 136.512662,64.2736136 138.201238,65.2906012 C139.889814,66.3075887 142.189772,66.8306109 145.071997,66.8306109 Z M191.216712,76.099726 C172.555032,76.1868964 172.555032,61.0483102 172.555032,58.6365969 L172.525919,4.93965385 L183.909252,3.13813303 L183.909252,56.4863946 C183.909252,57.8520636 183.909252,66.5109862 191.216712,66.540043 L191.216712,76.099726 L191.216712,76.099726 Z" id="Shape" fill="#182359"></path>
        </g>
    </g>
</svg>